<?xml version="1.0" standalone="no"?>
<!DOCTYPE svg PUBLIC "-//W3C//DTD SVG 20010904//EN"
 "http://www.w3.org/TR/2001/REC-SVG-20010904/DTD/svg10.dtd">
<svg version="1.0" xmlns="http://www.w3.org/2000/svg"
 width="512.000000pt" height="512.000000pt" viewBox="0 0 512.000000 512.000000"
 preserveAspectRatio="xMidYMid meet">
    <g transform="translate(0.000000,512.000000) scale(0.100000,-0.100000)"
    fill="#183A53" stroke="none">
        <path d="M1280 4064 c-701 -509 -1274 -932 -1274 -939 1 -7 219 -684 485
        -1504 l484 -1491 1585 0 1585 0 484 1491 c266 820 484 1497 485 1504 1 11
        -2514 1848 -2548 1861 -6 2 -585 -412 -1286 -922z m1200 204 l0 -253 80 0 80
        0 0 253 c0 162 4 252 10 250 17 -6 1960 -1420 1960 -1427 0 -3 -118 -33 -262
        -65 -145 -32 -302 -67 -349 -78 l-87 -20 5 -82 c3 -44 6 -82 7 -82 0 -1 177
        38 391 86 215 49 391 87 392 86 4 -4 -763 -2356 -768 -2356 -4 0 -89 127 -190
        282 -100 156 -188 289 -194 296 -9 10 -22 6 -66 -18 -29 -16 -62 -30 -73 -30
        -11 0 -16 -5 -13 -13 2 -7 93 -149 201 -315 108 -167 199 -309 203 -317 4 -13
        -150 -15 -1247 -15 -1137 0 -1252 1 -1246 16 3 8 177 279 387 602 210 322 383
        592 386 598 2 7 -8 20 -24 30 -15 10 -43 31 -61 48 -28 26 -34 28 -46 16 -7
        -8 -183 -277 -391 -598 -207 -320 -380 -582 -384 -582 -5 0 -772 2352 -768
        2356 1 1 148 -31 327 -72 179 -40 333 -73 343 -74 13 0 17 8 17 36 0 20 5 54
        12 75 6 22 9 41 6 44 -3 3 -141 35 -306 72 -166 37 -301 72 -299 76 3 10 1948
        1426 1960 1427 4 0 7 -114 7 -252z"/>
        <path d="M2471 3893 c-101 -36 -169 -149 -157 -262 l6 -56 -363 -286 -362
        -286 -40 20 c-58 30 -155 30 -218 -2 -94 -46 -150 -163 -127 -266 30 -132 164
        -219 288 -186 l46 12 237 -237 236 -236 -14 -47 c-47 -150 75 -305 239 -304
        46 1 69 8 115 33 l58 33 332 -169 333 -169 0 -43 c0 -86 55 -171 134 -208 167
        -78 348 35 347 215 0 73 -22 123 -77 177 l-45 43 76 428 c42 235 79 439 83
        452 5 15 21 28 45 36 54 19 103 59 134 113 23 39 28 59 28 117 0 59 -5 78 -28
        118 -34 57 -89 99 -152 117 -44 12 -68 10 -172 -16 -17 -5 -85 47 -345 266
        -215 181 -322 278 -320 289 13 76 13 94 -2 145 -23 76 -83 138 -157 160 -64
        19 -101 19 -158 -1z m9 -459 c47 -18 83 -17 151 2 l57 16 324 -272 c217 -184
        322 -278 320 -289 -9 -40 -5 -130 7 -164 7 -21 34 -59 61 -86 l48 -48 -81
        -450 -80 -451 -36 -11 c-20 -6 -51 -21 -70 -34 l-34 -23 -331 167 -331 167 -6
        54 c-16 141 -134 240 -266 225 -27 -3 -57 -8 -68 -12 -16 -5 -65 39 -252 227
        l-233 233 16 45 c9 26 14 67 12 97 l-3 52 365 290 c234 186 370 288 380 284 8
        -3 31 -12 50 -19z"/>
        <path d="M2480 2984 c0 -300 -2 -334 -16 -334 -9 0 -156 32 -327 70 -171 39
        -316 70 -323 70 -7 0 -14 -17 -16 -40 -3 -37 0 -44 52 -94 l55 -54 255 -57
        c140 -31 257 -58 259 -61 2 -2 -17 -35 -42 -73 l-46 -70 34 -11 c18 -6 52 -24
        74 -40 l40 -29 36 60 c21 33 41 59 46 57 5 -2 80 -113 167 -248 l159 -245 129
        -67 c71 -36 133 -63 137 -59 4 4 -96 169 -224 365 -127 196 -230 359 -228 361
        3 2 132 32 287 67 229 51 282 66 278 78 -7 21 -49 134 -52 138 -1 2 -124 -24
        -272 -57 -149 -34 -277 -61 -286 -61 -14 0 -16 35 -16 334 l0 333 -80 0 -80 0
        0 -333z"/>
    </g>
</svg>